<svg width="128" height="128" viewBox="0 0 128 128" fill="none" xmlns="http://www.w3.org/2000/svg">
<path d="M79.2211 112.799H50.7264C47.4877 112.799 44.3817 111.513 42.0915 109.223C39.8014 106.933 38.5146 103.827 38.5144 100.588V96.6345C38.5342 95.5724 38.4473 94.5109 38.2549 93.4662H46.4853C46.6123 94.517 46.6699 95.5751 46.6577 96.6335V100.588C46.66 101.666 47.0892 102.699 47.8513 103.461C48.6135 104.223 49.6466 104.652 50.7245 104.655H79.2211C80.299 104.652 81.3321 104.223 82.0942 103.461C82.8564 102.699 83.2856 101.666 83.2879 100.588V96.5212C83.2902 95.4433 83.7194 94.4102 84.4816 93.648C85.2438 92.8859 86.2768 92.4567 87.3547 92.4544H93.4365C96.3925 92.4372 99.2433 91.3553 101.466 89.4068C103.689 87.4584 105.136 84.7741 105.54 81.8458L106.896 71.5675C107.028 70.59 107.509 69.6933 108.251 69.0431C108.992 68.3929 109.944 68.0332 110.931 68.0303H115.843C112.071 57.4153 106.904 47.3489 100.479 38.0958C97.0906 33.5008 92.6725 29.764 87.5791 27.1851C82.4856 24.6063 76.8586 23.2572 71.1495 23.2461H71.0817C69.3449 23.2464 67.6101 23.3661 65.8897 23.6044C57.8463 24.7726 50.4153 28.5689 44.755 34.4018H34.2549C38.2713 28.533 43.6335 23.7104 49.8937 20.3365C56.1539 16.9625 63.1304 15.1353 70.2407 15.0072C77.3511 14.8792 84.3889 16.4541 90.7665 19.6005C97.1441 22.7468 102.676 27.3733 106.901 33.0936C109.405 36.1853 113.618 43.2935 117.386 50.7813C119.297 54.5799 120.912 58.1219 122.053 61.0238C123.344 64.3034 123.999 66.6592 123.999 68.0235C124.019 69.0989 123.823 70.1675 123.422 71.1656C123.021 72.1637 122.424 73.0709 121.665 73.8333C120.926 74.5758 120.047 75.1644 119.079 75.5652C118.111 75.9659 117.073 76.1707 116.026 76.1678H115.856H114.513L113.621 82.9042C112.963 87.7922 110.556 92.2762 106.847 95.5271C103.137 98.778 98.3765 100.576 93.4443 100.588H91.4331C91.4331 103.827 90.1465 106.933 87.8563 109.223C85.5661 111.513 82.4599 112.799 79.2211 112.799Z" fill="#DFE3EC"/>
<path d="M8.60112 46.0028C9.68139 45.4573 10.893 45.226 12.0983 45.335C13.3035 45.444 14.454 45.8891 15.4188 46.6196C15.5467 46.7156 15.6674 46.8208 15.78 46.9343L21.5471 52.7537C21.8736 48.6564 23.7287 44.8317 26.7441 42.0386C29.7594 39.2454 33.7147 37.6881 37.825 37.6755H67.3664C71.7175 37.6791 75.8894 39.4089 78.9664 42.4852C82.0435 45.5615 83.7742 49.733 83.7788 54.0841V73.78C83.774 78.1314 82.0432 82.3031 78.9664 85.38C75.8895 88.4569 71.7177 90.1876 67.3664 90.1925H37.825C33.6953 90.1802 29.7227 88.6086 26.7023 85.7922C23.682 82.9759 21.8369 79.1226 21.5365 75.0039L15.7732 80.7643C15.6622 80.8719 15.5448 80.9728 15.4217 81.0664C14.4538 81.7918 13.303 82.2334 12.0983 82.3418C10.8936 82.4501 9.68245 82.221 8.60061 81.6799C7.51878 81.1388 6.60894 80.3072 5.97302 79.2783C5.3371 78.2494 5.0002 77.0637 5.00007 75.8541V51.8338C4.99457 50.6223 5.32914 49.4335 5.96574 48.4027C6.60233 47.3719 7.5154 46.5404 8.60112 46.0028ZM37.825 83.6265H67.3664C69.9772 83.6234 72.4801 82.585 74.3262 80.7389C76.1723 78.8928 77.2108 76.3898 77.2139 73.779V54.0851C77.2108 51.4743 76.1723 48.9714 74.3262 47.1253C72.4801 45.2792 69.9772 44.2407 67.3664 44.2376H37.825C35.2142 44.2407 32.7112 45.2792 30.8651 47.1253C29.0191 48.9714 27.9806 51.4743 27.9775 54.0851V73.78C27.9808 76.3906 29.0194 78.8933 30.8655 80.7392C32.7115 82.5851 35.2144 83.6234 37.825 83.6265ZM21.4125 65.8459V61.9437L11.565 52.0062L11.4876 75.7621L21.4125 65.843V65.8459Z" fill="url(#paint0_linear_103_120)"/>
<defs>
<linearGradient id="paint0_linear_103_120" x1="83.7788" y1="65.562" x2="5.09445" y2="61.903" gradientUnits="userSpaceOnUse">
<stop stop-color="#DFE3EC" stop-opacity="0.949"/>
<stop offset="1" stop-color="#DFE3EC" stop-opacity="0.902"/>
</linearGradient>
</defs>
</svg>
